<svg width="11" height="11" viewBox="0 0 11 11" fill="none" xmlns="http://www.w3.org/2000/svg">
<g id="copy 1" clip-path="url(#clip0_249_2088)">
<path id="Vector" d="M4.46162 8.93749C3.38773 8.93749 2.51367 8.06343 2.51367 6.98955V2.29169H1.71162C1.01631 2.29169 0.451172 2.85674 0.451172 3.55205V9.73955C0.451172 10.4349 1.01631 11 1.71162 11H7.44073C8.13603 11 8.70117 10.4349 8.70117 9.73955V8.93749H4.46162Z" fill="#231F20"/>
<path id="Vector_2" d="M10.5345 1.26044C10.5345 0.564217 9.97026 0 9.27412 0H4.46162C3.76539 0 3.20117 0.564217 3.20117 1.26044V6.98956C3.20117 7.68578 3.76539 8.25 4.46162 8.25H9.27412C9.97026 8.25 10.5345 7.68578 10.5345 6.98956V1.26044Z" fill="#231F20"/>
</g>
<defs>
<clipPath id="clip0_249_2088">
<rect width="11" height="11" fill="white"/>
</clipPath>
</defs>
</svg>
