<svg width="22" height="22" viewBox="0 0 20 20" fill="none" xmlns="http://www.w3.org/2000/svg">
  <path
    d="M14.2075 5.94825L8.16671 11.9891L4.87587 8.70742L3.58337 9.99992L8.16671 14.5833L15.5 7.24992L14.2075 5.94825ZM10 0.833252C4.94004 0.833252 0.833374 4.93992 0.833374 9.99992C0.833374 15.0599 4.94004 19.1666 10 19.1666C15.06 19.1666 19.1667 15.0599 19.1667 9.99992C19.1667 4.93992 15.06 0.833252 10 0.833252ZM10 17.3333C5.94837 17.3333 2.66671 14.0516 2.66671 9.99992C2.66671 5.94825 5.94837 2.66659 10 2.66659C14.0517 2.66659 17.3334 5.94825 17.3334 9.99992C17.3334 14.0516 14.0517 17.3333 10 17.3333Z"
    fill="#2E7D32" />
</svg>